<svg width="133" height="150" viewBox="0 0 133 150" fill="none" xmlns="http://www.w3.org/2000/svg">
<g filter="url(#filter0_i)">
<path d="M99.2508 15.2952C55.0633 8.54916 49 30.0538 49 36.1498C49 42.2458 49 56.3627 49 56.3627C49 56.3627 98.2378 78.1676 99.2508 79.4632C100.264 80.7588 129.997 96.47 124.763 118.927C109.975 147.376 86.807 143.041 49 140.102" stroke="white" stroke-width="15"/>
</g>
<g filter="url(#filter1_i)">
<path d="M0 122.952C24.7389 122.952 24.3524 19 24.3524 19C57.2197 80.3015 39.0411 87.9806 63.3935 59.7467C87.7458 31.5128 99.7288 19 99.7288 19C99.7288 19 100.502 122.952 125.241 122.952" stroke="white" stroke-width="15"/>
</g>
<defs>
<filter id="filter0_i" x="41.5" y="6.50214" width="94.3899" height="147.232" filterUnits="userSpaceOnUse" color-interpolation-filters="sRGB">
<feFlood flood-opacity="0" result="BackgroundImageFix"/>
<feBlend mode="normal" in="SourceGraphic" in2="BackgroundImageFix" result="shape"/>
<feColorMatrix in="SourceAlpha" type="matrix" values="0 0 0 0 0 0 0 0 0 0 0 0 0 0 0 0 0 0 127 0" result="hardAlpha"/>
<feOffset dx="3" dy="4"/>
<feGaussianBlur stdDeviation="2"/>
<feComposite in2="hardAlpha" operator="arithmetic" k2="-1" k3="1"/>
<feColorMatrix type="matrix" values="0 0 0 0 0 0 0 0 0 0 0 0 0 0 0 0 0 0 0.25 0"/>
<feBlend mode="normal" in2="shape" result="effect1_innerShadow"/>
</filter>
<filter id="filter1_i" x="0" y="0.468445" width="125.241" height="133.984" filterUnits="userSpaceOnUse" color-interpolation-filters="sRGB">
<feFlood flood-opacity="0" result="BackgroundImageFix"/>
<feBlend mode="normal" in="SourceGraphic" in2="BackgroundImageFix" result="shape"/>
<feColorMatrix in="SourceAlpha" type="matrix" values="0 0 0 0 0 0 0 0 0 0 0 0 0 0 0 0 0 0 127 0" result="hardAlpha"/>
<feOffset dy="4"/>
<feGaussianBlur stdDeviation="2"/>
<feComposite in2="hardAlpha" operator="arithmetic" k2="-1" k3="1"/>
<feColorMatrix type="matrix" values="0 0 0 0 0 0 0 0 0 0 0 0 0 0 0 0 0 0 0.25 0"/>
<feBlend mode="normal" in2="shape" result="effect1_innerShadow"/>
</filter>
</defs>
</svg>
